<svg xmlns="http://www.w3.org/2000/svg" width="98" height="97" viewBox="0 0 98 97"><defs><clipPath id="tqt5a"><path fill="#fff" d="M81.348 76.369l-11.919-2.76.45 12.315-10.262-6.701-3.757 11.726-7.37-9.833-7.51 9.724-3.587-11.78-10.358 6.55.627-12.306-11.957 2.584 4.767-11.347-12.113-1.692 8.33-9.02-10.807-5.765 10.89-5.605-8.2-9.142 12.136-1.514-4.602-11.416 11.918 2.759-.45-12.314 10.263 6.701 3.756-11.727 7.37 9.834 7.51-9.724 3.588 11.78 10.358-6.55-.628 12.306 11.957-2.585-4.767 11.348 12.113 1.692-8.33 9.02 10.808 5.765-10.89 5.605 8.2 9.142-12.137 1.514z"/></clipPath></defs><g><g><g><path fill="#ff5c89" d="M86.306 80.186l-13.63-3.136.514 13.993-11.736-7.614-4.296 13.325L48.73 85.58l-8.59 11.05-4.102-13.386-11.845 7.442.717-13.983-13.673 2.937 5.45-12.895-13.852-1.923 9.527-10.25-12.36-6.55 12.454-6.37L3.08 31.262l13.879-1.72-5.264-12.973 13.63 3.136-.515-13.994 11.737 7.615L40.842 0l8.428 11.175L57.86.126l4.101 13.386 11.846-7.443-.717 13.984 13.673-2.937-5.45 12.895 13.852 1.923-9.527 10.25 12.36 6.55-12.454 6.37 9.377 10.388-13.879 1.721z"/></g><g><path fill="none" stroke="#fff" stroke-miterlimit="50" stroke-width="4" d="M81.348 76.369v0l-11.919-2.76v0l.45 12.315v0l-10.262-6.701v0L55.86 90.949v0l-7.37-9.833v0l-7.51 9.724v0l-3.587-11.78v0l-10.358 6.55v0l.627-12.306v0l-11.957 2.584v0l4.767-11.347v0L8.359 62.849v0l8.33-9.02v0L5.883 48.063v0l10.89-5.605v0l-8.2-9.142v0l12.136-1.514v0l-4.602-11.416v0l11.918 2.759v0l-.45-12.314v0l10.263 6.701v0l3.756-11.727v0l7.37 9.834v0l7.51-9.724v0l3.588 11.78v0l10.358-6.55v0l-.628 12.306v0l11.957-2.585v0L76.98 32.215v0l12.113 1.692v0l-8.33 9.02v0l10.808 5.765v0l-10.89 5.605v0l8.2 9.142v0l-12.137 1.514v0z" clip-path="url(&quot;#tqt5a&quot;)"/></g></g></g></svg>